<svg width="50" height="50" viewBox="0 0 50 50" fill="none" xmlns="http://www.w3.org/2000/svg">
<rect width="50" height="50" rx="25" fill="white"/>
<path d="M25.5071 17.6387C21.1594 17.6387 17.6526 21.1455 17.6526 25.4932C17.6526 29.8408 21.1594 33.3477 25.5071 33.3477C29.8547 33.3477 33.3616 29.8408 33.3616 25.4932C33.3616 21.1455 29.8547 17.6387 25.5071 17.6387ZM25.5071 30.5996C22.6975 30.5996 20.4006 28.3096 20.4006 25.4932C20.4006 22.6768 22.6907 20.3867 25.5071 20.3867C28.3235 20.3867 30.6135 22.6768 30.6135 25.4932C30.6135 28.3096 28.3167 30.5996 25.5071 30.5996ZM35.5149 17.3174C35.5149 18.3359 34.6946 19.1494 33.6829 19.1494C32.6643 19.1494 31.8508 18.3291 31.8508 17.3174C31.8508 16.3057 32.6711 15.4854 33.6829 15.4854C34.6946 15.4854 35.5149 16.3057 35.5149 17.3174ZM40.717 19.1768C40.6008 16.7227 40.0403 14.5488 38.2424 12.7578C36.4514 10.9668 34.2776 10.4062 31.8235 10.2832C29.2942 10.1396 21.7131 10.1396 19.1838 10.2832C16.7366 10.3994 14.5627 10.96 12.7649 12.751C10.967 14.542 10.4133 16.7158 10.2903 19.1699C10.1467 21.6992 10.1467 29.2803 10.2903 31.8096C10.4065 34.2637 10.967 36.4375 12.7649 38.2285C14.5627 40.0195 16.7297 40.5801 19.1838 40.7031C21.7131 40.8467 29.2942 40.8467 31.8235 40.7031C34.2776 40.5869 36.4514 40.0264 38.2424 38.2285C40.0334 36.4375 40.594 34.2637 40.717 31.8096C40.8606 29.2803 40.8606 21.7061 40.717 19.1768ZM37.4495 34.5234C36.9163 35.8633 35.884 36.8955 34.5374 37.4355C32.5208 38.2354 27.7356 38.0508 25.5071 38.0508C23.2786 38.0508 18.4866 38.2285 16.4768 37.4355C15.137 36.9023 14.1047 35.8701 13.5647 34.5234C12.7649 32.5068 12.9495 27.7217 12.9495 25.4932C12.9495 23.2646 12.7717 18.4727 13.5647 16.4629C14.0979 15.123 15.1301 14.0908 16.4768 13.5508C18.4934 12.751 23.2786 12.9355 25.5071 12.9355C27.7356 12.9355 32.5276 12.7578 34.5374 13.5508C35.8772 14.084 36.9094 15.1162 37.4495 16.4629C38.2493 18.4795 38.0647 23.2646 38.0647 25.4932C38.0647 27.7217 38.2493 32.5137 37.4495 34.5234Z" fill="#EB3850"/>
</svg>
