<svg width="50" height="50" viewBox="0 0 50 50" fill="none" xmlns="http://www.w3.org/2000/svg">
<rect width="50" height="50" rx="25" fill="white"/>
<path d="M17.0426 38.625H10.6934V18.1787H17.0426V38.625ZM13.8646 15.3896C11.8343 15.3896 10.1875 13.708 10.1875 11.6777C10.1875 10.7025 10.5749 9.76724 11.2645 9.07765C11.9541 8.38807 12.8893 8.00067 13.8646 8.00067C14.8398 8.00067 15.775 8.38807 16.4646 9.07765C17.1542 9.76724 17.5416 10.7025 17.5416 11.6777C17.5416 13.708 15.8941 15.3896 13.8646 15.3896ZM40.8057 38.625H34.4701V28.6719C34.4701 26.2998 34.4223 23.2578 31.169 23.2578C27.868 23.2578 27.3621 25.8349 27.3621 28.501V38.625H21.0197V18.1787H27.1092V20.9678H27.198C28.0457 19.3613 30.1163 17.666 33.2055 17.666C39.6313 17.666 40.8125 21.8974 40.8125 27.3935V38.625H40.8057Z" fill="#EB3850"/>
</svg>
