<svg width="50" height="50" viewBox="0 0 50 50" fill="none" xmlns="http://www.w3.org/2000/svg">
<rect width="50" height="50" rx="25" fill="white"/>
<path d="M36.2256 14.6377C33.3613 11.7666 29.5469 10.1875 25.4932 10.1875C17.126 10.1875 10.3174 16.9961 10.3174 25.3633C10.3174 28.0361 11.0146 30.6475 12.3408 32.9512L10.1875 40.8125L18.2334 38.7002C20.4482 39.9102 22.9434 40.5459 25.4863 40.5459H25.4932C33.8535 40.5459 40.8125 33.7373 40.8125 25.3701C40.8125 21.3164 39.0898 17.5088 36.2256 14.6377ZM25.4932 37.9893C23.2236 37.9893 21.002 37.3809 19.0674 36.2324L18.6094 35.959L13.8379 37.21L15.1094 32.5547L14.8086 32.0762C13.5439 30.0664 12.8809 27.749 12.8809 25.3633C12.8809 18.4111 18.541 12.751 25.5 12.751C28.8701 12.751 32.0352 14.0635 34.4141 16.4492C36.793 18.835 38.2559 22 38.249 25.3701C38.249 32.3291 32.4453 37.9893 25.4932 37.9893ZM32.4111 28.542C32.0352 28.3506 30.1689 27.4346 29.8203 27.3115C29.4717 27.1816 29.2188 27.1201 28.9658 27.5029C28.7129 27.8857 27.9883 28.7334 27.7627 28.9932C27.5439 29.2461 27.3184 29.2803 26.9424 29.0889C24.7139 27.9746 23.251 27.0996 21.7812 24.5771C21.3916 23.9072 22.1709 23.9551 22.8955 22.5059C23.0186 22.2529 22.957 22.0342 22.8613 21.8428C22.7656 21.6514 22.0068 19.7852 21.6924 19.0264C21.3848 18.2881 21.0703 18.3906 20.8379 18.377C20.6191 18.3633 20.3662 18.3633 20.1133 18.3633C19.8604 18.3633 19.4502 18.459 19.1016 18.835C18.7529 19.2178 17.7754 20.1338 17.7754 22C17.7754 23.8662 19.1357 25.6709 19.3203 25.9238C19.5117 26.1768 21.9932 30.0049 25.8008 31.6523C28.207 32.6914 29.1504 32.7803 30.3535 32.6025C31.085 32.4932 32.5957 31.6865 32.9102 30.7979C33.2246 29.9092 33.2246 29.1504 33.1289 28.9932C33.04 28.8223 32.7871 28.7266 32.4111 28.542Z" fill="#EB3850"/>
</svg>
